<?xml version="1.0" encoding="UTF-8"?>
<svg xmlns="http://www.w3.org/2000/svg" style="display: none;">
  <!-- Logo Icon -->
  <symbol id="icon-gaming" viewBox="0 0 24 24" fill="none" stroke="currentColor" stroke-width="2" stroke-linecap="round" stroke-linejoin="round">
    <rect x="2" y="6" width="20" height="12" rx="2"></rect>
    <path d="M12 12h.01"></path>
    <path d="M16 12h.01"></path>
    <path d="M8 12h.01"></path>
    <path d="M2 10h20"></path>
  </symbol>
  
  <!-- Menu Icon -->
  <symbol id="icon-menu" viewBox="0 0 24 24" fill="none" stroke="currentColor" stroke-width="2" stroke-linecap="round" stroke-linejoin="round">
    <line x1="3" y1="12" x2="21" y2="12"></line>
    <line x1="3" y1="6" x2="21" y2="6"></line>
    <line x1="3" y1="18" x2="21" y2="18"></line>
  </symbol>
  
  <!-- Arrow Up Icon -->
  <symbol id="icon-arrow-up" viewBox="0 0 24 24" fill="none" stroke="currentColor" stroke-width="2" stroke-linecap="round" stroke-linejoin="round">
    <line x1="12" y1="19" x2="12" y2="5"></line>
    <polyline points="5 12 12 5 19 12"></polyline>
  </symbol>
  
  <!-- Introduction Icon -->
  <symbol id="icon-info" viewBox="0 0 24 24" fill="none" stroke="currentColor" stroke-width="2" stroke-linecap="round" stroke-linejoin="round">
    <circle cx="12" cy="12" r="10"></circle>
    <line x1="12" y1="16" x2="12" y2="12"></line>
    <line x1="12" y1="8" x2="12.01" y2="8"></line>
  </symbol>
  
  <!-- Project Overview Icon -->
  <symbol id="icon-star" viewBox="0 0 24 24" fill="none" stroke="currentColor" stroke-width="2" stroke-linecap="round" stroke-linejoin="round">
    <polygon points="12 2 15.09 8.26 22 9.27 17 14.14 18.18 21.02 12 17.77 5.82 21.02 7 14.14 2 9.27 8.91 8.26 12 2"></polygon>
  </symbol>
  
  <!-- Technology Stack Icon -->
  <symbol id="icon-code" viewBox="0 0 24 24" fill="none" stroke="currentColor" stroke-width="2" stroke-linecap="round" stroke-linejoin="round">
    <polyline points="16 18 22 12 16 6"></polyline>
    <polyline points="8 6 2 12 8 18"></polyline>
  </symbol>
  
  <!-- Project Structure Icon -->
  <symbol id="icon-folder" viewBox="0 0 24 24" fill="none" stroke="currentColor" stroke-width="2" stroke-linecap="round" stroke-linejoin="round">
    <path d="M22 19a2 2 0 0 1-2 2H4a2 2 0 0 1-2-2V5a2 2 0 0 1 2-2h5l2 3h9a2 2 0 0 1 2 2z"></path>
  </symbol>
  
  <!-- Features Icon -->
  <symbol id="icon-package" viewBox="0 0 24 24" fill="none" stroke="currentColor" stroke-width="2" stroke-linecap="round" stroke-linejoin="round">
    <line x1="16.5" y1="9.4" x2="7.5" y2="4.21"></line>
    <path d="M21 16V8a2 2 0 0 0-1-1.73l-7-4a2 2 0 0 0-2 0l-7 4A2 2 0 0 0 3 8v8a2 2 0 0 0 1 1.73l7 4a2 2 0 0 0 2 0l7-4A2 2 0 0 0 21 16z"></path>
    <polyline points="3.27 6.96 12 12.01 20.73 6.96"></polyline>
    <line x1="12" y1="22.08" x2="12" y2="12"></line>
  </symbol>
  
  <!-- Authentication Icon -->
  <symbol id="icon-lock" viewBox="0 0 24 24" fill="none" stroke="currentColor" stroke-width="2" stroke-linecap="round" stroke-linejoin="round">
    <rect x="3" y="11" width="18" height="11" rx="2" ry="2"></rect>
    <path d="M7 11V7a5 5 0 0 1 10 0v4"></path>
  </symbol>
  
  <!-- Data Models Icon -->
  <symbol id="icon-database" viewBox="0 0 24 24" fill="none" stroke="currentColor" stroke-width="2" stroke-linecap="round" stroke-linejoin="round">
    <ellipse cx="12" cy="5" rx="9" ry="3"></ellipse>
    <path d="M21 12c0 1.66-4 3-9 3s-9-1.34-9-3"></path>
    <path d="M3 5v14c0 1.66 4 3 9 3s9-1.34 9-3V5"></path>
  </symbol>
  
  <!-- API Integration Icon -->
  <symbol id="icon-server" viewBox="0 0 24 24" fill="none" stroke="currentColor" stroke-width="2" stroke-linecap="round" stroke-linejoin="round">
    <rect x="2" y="2" width="20" height="8" rx="2" ry="2"></rect>
    <rect x="2" y="14" width="20" height="8" rx="2" ry="2"></rect>
    <line x1="6" y1="6" x2="6.01" y2="6"></line>
    <line x1="6" y1="18" x2="6.01" y2="18"></line>
  </symbol>
  
  <!-- Components Icon -->
  <symbol id="icon-layers" viewBox="0 0 24 24" fill="none" stroke="currentColor" stroke-width="2" stroke-linecap="round" stroke-linejoin="round">
    <polygon points="12 2 2 7 12 12 22 7 12 2"></polygon>
    <polyline points="2 17 12 22 22 17"></polyline>
    <polyline points="2 12 12 17 22 12"></polyline>
  </symbol>
  
  <!-- UI Icon -->
  <symbol id="icon-layout" viewBox="0 0 24 24" fill="none" stroke="currentColor" stroke-width="2" stroke-linecap="round" stroke-linejoin="round">
    <rect x="3" y="3" width="18" height="18" rx="2" ry="2"></rect>
    <line x1="3" y1="9" x2="21" y2="9"></line>
    <line x1="9" y1="21" x2="9" y2="9"></line>
  </symbol>
  
  <!-- Deployment Icon -->
  <symbol id="icon-cloud" viewBox="0 0 24 24" fill="none" stroke="currentColor" stroke-width="2" stroke-linecap="round" stroke-linejoin="round">
    <path d="M18 10h-1.26A8 8 0 1 0 9 20h9a5 5 0 0 0 0-10z"></path>
  </symbol>
  
  <!-- Getting Started Icon -->
  <symbol id="icon-play" viewBox="0 0 24 24" fill="none" stroke="currentColor" stroke-width="2" stroke-linecap="round" stroke-linejoin="round">
    <circle cx="12" cy="12" r="10"></circle>
    <polygon points="10 8 16 12 10 16 10 8"></polygon>
  </symbol>
  
  <!-- Feature: Game Discovery -->
  <symbol id="icon-search" viewBox="0 0 24 24" fill="none" stroke="currentColor" stroke-width="2" stroke-linecap="round" stroke-linejoin="round">
    <circle cx="11" cy="11" r="8"></circle>
    <line x1="21" y1="21" x2="16.65" y2="16.65"></line>
  </symbol>
  
  <!-- Feature: User Accounts -->
  <symbol id="icon-user" viewBox="0 0 24 24" fill="none" stroke="currentColor" stroke-width="2" stroke-linecap="round" stroke-linejoin="round">
    <path d="M20 21v-2a4 4 0 0 0-4-4H8a4 4 0 0 0-4 4v2"></path>
    <circle cx="12" cy="7" r="4"></circle>
  </symbol>
  
  <!-- Feature: Social Features -->
  <symbol id="icon-message-circle" viewBox="0 0 24 24" fill="none" stroke="currentColor" stroke-width="2" stroke-linecap="round" stroke-linejoin="round">
    <path d="M21 11.5a8.38 8.38 0 0 1-.9 3.8 8.5 8.5 0 0 1-7.6 4.7 8.38 8.38 0 0 1-3.8-.9L3 21l1.9-5.7a8.38 8.38 0 0 1-.9-3.8 8.5 8.5 0 0 1 4.7-7.6 8.38 8.38 0 0 1 3.8-.9h.5a8.48 8.48 0 0 1 8 8v.5z"></path>
  </symbol>
  
  <!-- Feature: Personalization -->
  <symbol id="icon-bookmark" viewBox="0 0 24 24" fill="none" stroke="currentColor" stroke-width="2" stroke-linecap="round" stroke-linejoin="round">
    <path d="M19 21l-7-5-7 5V5a2 2 0 0 1 2-2h10a2 2 0 0 1 2 2z"></path>
  </symbol>
  
  <!-- Feature: Responsive Design -->
  <symbol id="icon-monitor" viewBox="0 0 24 24" fill="none" stroke="currentColor" stroke-width="2" stroke-linecap="round" stroke-linejoin="round">
    <rect x="2" y="3" width="20" height="14" rx="2" ry="2"></rect>
    <line x1="8" y1="21" x2="16" y2="21"></line>
    <line x1="12" y1="17" x2="12" y2="21"></line>
  </symbol>
  
  <!-- Copy Icon -->
  <symbol id="icon-copy" viewBox="0 0 24 24" fill="none" stroke="currentColor" stroke-width="2" stroke-linecap="round" stroke-linejoin="round">
    <rect x="9" y="9" width="13" height="13" rx="2" ry="2"></rect>
    <path d="M5 15H4a2 2 0 0 1-2-2V4a2 2 0 0 1 2-2h9a2 2 0 0 1 2 2v1"></path>
  </symbol>
  
  <!-- Check Icon -->
  <symbol id="icon-check" viewBox="0 0 24 24" fill="none" stroke="currentColor" stroke-width="2" stroke-linecap="round" stroke-linejoin="round">
    <polyline points="20 6 9 17 4 12"></polyline>
  </symbol>
  
  <!-- Arrow Right Icon -->
  <symbol id="icon-arrow-right" viewBox="0 0 24 24" fill="none" stroke="currentColor" stroke-width="2" stroke-linecap="round" stroke-linejoin="round">
    <line x1="5" y1="12" x2="19" y2="12"></line>
    <polyline points="12 5 19 12 12 19"></polyline>
  </symbol>
  
  <!-- Character Icon for Easter Egg -->
  <symbol id="icon-game-character" viewBox="0 0 24 24" fill="none" stroke="currentColor" stroke-width="2" stroke-linecap="round" stroke-linejoin="round">
    <circle cx="12" cy="8" r="7"></circle>
    <polyline points="8.21 13.89 7 23 12 20 17 23 15.79 13.88"></polyline>
  </symbol>
</svg> 